<svg id="visual" viewBox="0 0 900 600" width="900" height="600" xmlns="http://www.w3.org/2000/svg" xmlns:xlink="http://www.w3.org/1999/xlink" version="1.1"><rect x="0" y="0" width="900" height="600" fill="#001220"></rect><path d="M0 327L25 324.7C50 322.3 100 317.7 150 320.3C200 323 250 333 300 332.8C350 332.7 400 322.3 450 322.2C500 322 550 332 600 340.7C650 349.3 700 356.7 750 353C800 349.3 850 334.7 875 327.3L900 320L900 601L875 601C850 601 800 601 750 601C700 601 650 601 600 601C550 601 500 601 450 601C400 601 350 601 300 601C250 601 200 601 150 601C100 601 50 601 25 601L0 601Z" fill="#25296e"></path><path d="M0 415L25 413.8C50 412.7 100 410.3 150 403C200 395.7 250 383.3 300 376.7C350 370 400 369 450 366.5C500 364 550 360 600 357.5C650 355 700 354 750 363.8C800 373.7 850 394.3 875 404.7L900 415L900 601L875 601C850 601 800 601 750 601C700 601 650 601 600 601C550 601 500 601 450 601C400 601 350 601 300 601C250 601 200 601 150 601C100 601 50 601 25 601L0 601Z" fill="#163975"></path><path d="M0 407L25 407.3C50 407.7 100 408.3 150 417.2C200 426 250 443 300 446.7C350 450.3 400 440.7 450 437.2C500 433.7 550 436.3 600 436C650 435.7 700 432.3 750 427.7C800 423 850 417 875 414L900 411L900 601L875 601C850 601 800 601 750 601C700 601 650 601 600 601C550 601 500 601 450 601C400 601 350 601 300 601C250 601 200 601 150 601C100 601 50 601 25 601L0 601Z" fill="#144777"></path><path d="M0 475L25 474.2C50 473.3 100 471.7 150 472.3C200 473 250 476 300 474.7C350 473.3 400 467.7 450 467.3C500 467 550 472 600 476.3C650 480.7 700 484.3 750 487.3C800 490.3 850 492.7 875 493.8L900 495L900 601L875 601C850 601 800 601 750 601C700 601 650 601 600 601C550 601 500 601 450 601C400 601 350 601 300 601C250 601 200 601 150 601C100 601 50 601 25 601L0 601Z" fill="#245477"></path><path d="M0 557L25 550.7C50 544.3 100 531.7 150 529.7C200 527.7 250 536.3 300 541.3C350 546.3 400 547.7 450 550.5C500 553.3 550 557.7 600 554C650 550.3 700 538.7 750 536.5C800 534.3 850 541.7 875 545.3L900 549L900 601L875 601C850 601 800 601 750 601C700 601 650 601 600 601C550 601 500 601 450 601C400 601 350 601 300 601C250 601 200 601 150 601C100 601 50 601 25 601L0 601Z" fill="#395f76"></path></svg>